<?xml version="1.0" encoding="utf-8"?>
<!-- Generated by Mocodo 4.0.2 -->
<svg width="342" height="136" viewBox="0 0 342 136" xmlns="http://www.w3.org/2000/svg">
<rect x="0" y="0" width="342" height="136" fill="#ffffbf" stroke="none" stroke-width="0"/>

<!-- Association ORGANISER -->
<g>
	<line x1="44" y1="68" x2="157" y2="68" stroke="#66c2a5" stroke-width="2"/>
	<line x1="284" y1="68" x2="157" y2="68" stroke="#66c2a5" stroke-width="2"/>
	<g>
		<path d="M188 43 a14 14 90 0 1 14 14 V68 h-90 V57 a14 14 90 0 1 14 -14" fill="#abdda4" stroke="#abdda4" stroke-width="0"/>
		<path d="M202 68 v11 a14 14 90 0 1 -14 14 H126 a14 14 90 0 1 -14 -14 V68 H90" fill="#e6f598" stroke="#e6f598" stroke-width="0"/>
		<rect x="112" y="43" width="90" height="50" fill="none" rx="14" stroke="#66c2a5" stroke-width="2"/>
		<line x1="112" y1="68" x2="202" y2="68" stroke="#66c2a5" stroke-width="1"/>
		<text x="120" y="60.75" fill="#000000" font-family="Verdana" font-size="12">ORGANISER</text>
	</g>
	<text x="84" y="85" fill="#d53e4f" font-family="Verdana" font-size="12">N,N</text>
	<text x="207" y="85" fill="#d53e4f" font-family="Verdana" font-size="12">N,N</text>
</g>

<!-- Entity USER -->
<g>
	<g>
		<rect x="9" y="17" width="70" height="25" fill="#fdae61" stroke="none" stroke-width="0" opacity="1"/>
		<rect x="9" y="42" width="70" height="77" fill="#fee08b" stroke="none" stroke-width="0" opacity="1"/>
		<rect x="9" y="17" width="70" height="102" fill="none" stroke="#f46d43" stroke-width="2" opacity="1"/>
		<line x1="9" y1="42" x2="79" y2="42" stroke="#f46d43" stroke-width="1"/>
	</g>
	<text x="27" y="34.75" fill="#000000" font-family="Verdana" font-size="12">USER</text>
	<text x="14" y="59.8" fill="#000000" font-family="Verdana" font-size="12">firstName</text>
	<line x1="14" y1="62" x2="74" y2="62" stroke="#000000" stroke-width="1"/>
	<text x="14" y="76.8" fill="#000000" font-family="Verdana" font-size="12">lastName</text>
	<text x="14" y="93.8" fill="#000000" font-family="Verdana" font-size="12">mail</text>
</g>

<!-- Entity EVENT -->
<g>
	<g>
		<rect x="235" y="9" width="98" height="25" fill="#fdae61" stroke="none" stroke-width="0" opacity="1"/>
		<rect x="235" y="34" width="98" height="93" fill="#fee08b" stroke="none" stroke-width="0" opacity="1"/>
		<rect x="235" y="9" width="98" height="118" fill="none" stroke="#f46d43" stroke-width="2" opacity="1"/>
		<line x1="235" y1="34" x2="333" y2="34" stroke="#f46d43" stroke-width="1"/>
	</g>
	<text x="264" y="26.75" fill="#000000" font-family="Verdana" font-size="12">EVENT</text>
	<text x="240" y="51.8" fill="#000000" font-family="Verdana" font-size="12">startDate</text>
	<line x1="240" y1="54" x2="297" y2="54" stroke="#000000" stroke-width="1"/>
	<text x="240" y="68.8" fill="#000000" font-family="Verdana" font-size="12">endDate</text>
	<text x="240" y="85.8" fill="#000000" font-family="Verdana" font-size="12">hourStartDate</text>
	<text x="240" y="102.8" fill="#000000" font-family="Verdana" font-size="12">hourEndDate</text>
</g>
</svg>